# xmcd
# 
# Track frame offsets:
#   150
#   17277
#   36360
#   55477
#   73062
#   88775
#   102562
#   117637
#   134357
#   153922
#   170697
#   186815
#   202650
#   218397
# 
# Disc length: 3095 seconds
# 
# Revision: 2
# Processed by: cddbd v1.5.1PL2 Copyright (c) Steve Scherf et al.
# Submitted via: Synapstar 1.0 
# 
DISCID=c20c150e
DTITLE=Various Artist - SD037
DYEAR=1900
DGENRE=Country
TTITLE0=George Strait - One Night At A Time
TTITLE1=Patty Loveless - Trouble With The Truth, The
TTITLE2=Brooks and Dunn - Why Would I Say Goodbye
TTITLE3=Alan Jackson - Who's Cheatin' Who
TTITLE4=Deana Carter - Count Me In
TTITLE5=Vince Gill - Little More Love, A
TTITLE6=LeAnn Rimes - Light In Your Eyes, The
TTITLE7=Rick Trevino - I Only Get This Way With You
TTITLE8=Kathy Mattea - 455 Rocket
TTITLE9=Ty Herndon - Loved Too Much
TTITLE10=Paul Brandt - Take It From Me
TTITLE11=David Lee Murphy - Breakfast In Birmingham
TTITLE12=Tanya Tucker - Little Things
TTITLE13=Mark Chestnutt - Let It Rain
EXTD=MediaType: Karaoke CD+G Producer: StarDisc
EXTT0=
EXTT1=
EXTT2=
EXTT3=
EXTT4=
EXTT5=
EXTT6=
EXTT7=
EXTT8=
EXTT9=
EXTT10=
EXTT11=
EXTT12=
EXTT13=
PLAYORDER=
